# xmcd CD database file
#
# Track frame offsets:
#	150
#	21162
#	35535
#	54235
#	68257
#	87955
#	102175
#	117862
#	133875
#	149697
#	165890
#	185950
#	203497
#	216662
#	234822
#	250527
#	268167
#	278782
#	294087
#	323822
#
# Disc length: 4593 seconds
#
# Revision: 0
# Processed by: cddbd v1.5.1PL2 Copyright (c) Steve Scherf et al.
# Submitted via: CDex 1.50
#
DISCID=1d11ef14
DTITLE=Na Leo - Holy Night In Hawaii Christmas Gift
DYEAR=2005
DGENRE=Country
TTITLE0=Have Yourself A Merry Little Christmas
TTITLE1=Kana Koloka (Here Comes Santa Claus)
TTITLE2=Christmas In Your Eyes
TTITLE3=Jingle Bell Rock
TTITLE4=The Song Of Christmas
TTITLE5=The Happiest Time Of The Year
TTITLE6=I'll Be Home For Christmas
TTITLE7=Christmas Time Blues
TTITLE8=Santa Island
TTITLE9=What Love
TTITLE10=O Holy Night
TTITLE11=Yes
TTITLE12=Christmas Day
TTITLE13=First Christmas(Emmanuel)
TTITLE14=Twelve Days of Christmas (Hawaiian Version)
TTITLE15=Unto Us Tonight
TTITLE16=Rockin'Around The Christmas Tree
TTITLE17=What Would Christmas Be
TTITLE18=Ave Maria
TTITLE19=A Christmas Wish
EXTD=YEAR: 2005
EXTT0=
EXTT1=
EXTT2=
EXTT3=
EXTT4=
EXTT5=
EXTT6=
EXTT7=
EXTT8=
EXTT9=
EXTT10=
EXTT11=
EXTT12=
EXTT13=
EXTT14=
EXTT15=
EXTT16=
EXTT17=
EXTT18=
EXTT19=
PLAYORDER=
